<?xml version="1.0" encoding="UTF-8" standalone="no"?>
<!-- Created with Inkscape (http://www.inkscape.org/) -->

<svg
   xmlns:dc="http://purl.org/dc/elements/1.1/"
   xmlns:cc="http://creativecommons.org/ns#"
   xmlns:rdf="http://www.w3.org/1999/02/22-rdf-syntax-ns#"
   xmlns:svg="http://www.w3.org/2000/svg"
   xmlns="http://www.w3.org/2000/svg"
   xmlns:sodipodi="http://sodipodi.sourceforge.net/DTD/sodipodi-0.dtd"
   xmlns:inkscape="http://www.inkscape.org/namespaces/inkscape"
   width="51.356544mm"
   height="41.596329mm"
   viewBox="0 0 51.356544 41.596329"
   version="1.1"
   id="svg901"
   sodipodi:docname="logo.svg"
   inkscape:version="0.92.2 (5c3e80d, 2017-08-06)">
  <defs
     id="defs895">
    <clipPath
       clipPathUnits="userSpaceOnUse"
       id="clipPath18">
      <path
         d="M 0,153.07 H 191.54 V 0 H 0 Z"
         id="path16"
         inkscape:connector-curvature="0" />
    </clipPath>
  </defs>
  <sodipodi:namedview
     id="base"
     pagecolor="#ffffff"
     bordercolor="#666666"
     borderopacity="1.0"
     inkscape:pageopacity="0.0"
     inkscape:pageshadow="2"
     inkscape:zoom="1.979899"
     inkscape:cx="22.93567"
     inkscape:cy="58.15558"
     inkscape:document-units="mm"
     inkscape:current-layer="layer1"
     showgrid="false"
     fit-margin-top="1"
     fit-margin-left="1"
     fit-margin-right="1"
     fit-margin-bottom="1"
     inkscape:window-width="1645"
     inkscape:window-height="908"
     inkscape:window-x="67"
     inkscape:window-y="27"
     inkscape:window-maximized="1" />
  <metadata
     id="metadata898">
    <rdf:RDF>
      <cc:Work
         rdf:about="">
        <dc:format>image/svg+xml</dc:format>
        <dc:type
           rdf:resource="http://purl.org/dc/dcmitype/StillImage" />
        <dc:title></dc:title>
      </cc:Work>
    </rdf:RDF>
  </metadata>
  <g
     inkscape:label="Layer 1"
     inkscape:groupmode="layer"
     id="layer1"
     transform="translate(-79.321728,-127.70183)">
    <g
       transform="matrix(0.26103248,0,0,-0.26103248,80.000867,168.47812)"
       id="g12"
       style="fill:#ffffff">
      <g
         id="g14"
         clip-path="url(#clipPath18)"
         style="fill:#ffffff">
        <g
           id="g20"
           transform="translate(138.7812,0.6894)"
           style="fill:#ffffff">
          <path
             d="M 0,0 H 16.292 V 2.662 H 2.758 v 7.601 h 12.476 v 2.598 H 2.758 0 Z M -116.929,18.409 V 0 h 2.758 v 22.45 h -3.335 l -7.826,-11.546 -7.89,11.546 h -3.335 V 0 h 2.758 v 18.473 l 8.146,-11.417 h 0.578 z M -78.484,0 h 3.014 l -10.07,22.45 h -3.143 L -98.753,0 h 3.046 c 5.437,12.311 2.019,4.654 8.596,19.628 C -82.303,8.677 -82.355,8.64 -78.484,0 m 21.575,19.948 V 0 h 2.758 v 19.948 h 7.665 v 2.502 h -18.088 v -2.502 z m 31.068,0 V 0 h 2.758 v 19.948 h 7.665 V 22.45 H -33.506 V 19.948 Z M 48.002,0 h 3.528 l -7.408,8.307 c 2.18,0.17 3.805,0.914 4.874,2.228 1.069,1.316 1.593,2.892 1.572,4.731 0,1.967 -0.669,3.656 -2.005,5.067 -1.336,1.411 -3.202,2.117 -5.596,2.117 H 32.768 V 0 h 2.791 v 8.082 h 5.451 z m -5.163,10.583 h -7.28 v 9.365 h 7.408 c 1.518,0 2.705,-0.481 3.56,-1.443 0.855,-0.962 1.272,-2.063 1.251,-3.303 0,-1.347 -0.423,-2.453 -1.267,-3.32 -0.845,-0.865 -2.069,-1.299 -3.672,-1.299"
             style="fill:#ffffff;fill-opacity:1;fill-rule:evenodd;stroke:none"
             id="path22"
             inkscape:connector-curvature="0" />
        </g>
        <g
           id="g24"
           transform="translate(141.5394,20.5734)"
           style="fill:#ffffff">
          <path
             d="M 0,0 H 13.021 V 2.566 H -2.758 V 0 Z"
             style="fill:#ffffff;fill-opacity:1;fill-rule:evenodd;stroke:none"
             id="path26"
             inkscape:connector-curvature="0" />
        </g>
        <g
           id="g28"
           transform="translate(133.9622,82.3286)"
           style="fill:#ffffff">
          <path
             d="m 0,0 c 1.133,1.133 2.698,1.834 4.427,1.834 1.728,0 3.294,-0.701 4.426,-1.835 1.133,-1.133 1.834,-2.697 1.834,-4.426 0,-1.729 -0.701,-3.293 -1.834,-4.427 -1.132,-1.133 -2.698,-1.833 -4.426,-1.833 -1.729,0 -3.294,0.7 -4.427,1.833 -1.133,1.134 -1.834,2.698 -1.834,4.427 0,1.729 0.701,3.293 1.834,4.427 m -38.231,-18.089 c 1.736,0 3.307,-0.704 4.445,-1.842 1.137,-1.136 1.841,-2.708 1.841,-4.443 0,-1.736 -0.704,-3.307 -1.841,-4.445 -1.138,-1.137 -2.709,-1.841 -4.445,-1.841 -1.735,0 -3.306,0.704 -4.443,1.841 -1.138,1.138 -1.841,2.709 -1.841,4.445 0,1.735 0.703,3.306 1.841,4.443 1.137,1.138 2.708,1.842 4.443,1.842 m 85.314,0.022 c 1.742,0 3.319,-0.706 4.461,-1.847 1.141,-1.142 1.848,-2.719 1.848,-4.46 0,-1.742 -0.706,-3.319 -1.848,-4.461 -1.142,-1.142 -2.719,-1.848 -4.461,-1.848 -1.741,0 -3.319,0.706 -4.46,1.848 -1.141,1.142 -1.848,2.719 -1.848,4.461 0,1.741 0.707,3.318 1.848,4.46 1.142,1.141 2.719,1.847 4.46,1.847 M -1.843,60.724 c 0,1.731 0.703,3.298 1.837,4.432 1.134,1.135 2.702,1.837 4.433,1.837 1.731,0 3.298,-0.702 4.432,-1.837 1.134,-1.134 1.836,-2.701 1.836,-4.432 0,-1.731 -0.701,-3.298 -1.836,-4.433 -1.134,-1.134 -2.701,-1.836 -4.432,-1.836 -1.731,0 -3.299,0.702 -4.433,1.836 -1.134,1.135 -1.837,2.702 -1.837,4.433 m -79.044,6.351 c 1.753,0 3.341,-0.711 4.49,-1.861 1.149,-1.149 1.86,-2.737 1.86,-4.49 0,-1.753 -0.71,-3.341 -1.86,-4.491 -1.149,-1.149 -2.737,-1.86 -4.49,-1.86 -1.754,0 -3.341,0.711 -4.491,1.86 -1.149,1.15 -1.86,2.738 -1.86,4.491 0,1.753 0.711,3.341 1.86,4.49 1.15,1.15 2.737,1.861 4.491,1.861 m -42.657,-85.193 c 1.727,0 3.292,-0.701 4.423,-1.833 1.132,-1.132 1.833,-2.697 1.833,-4.423 0,-1.728 -0.701,-3.292 -1.833,-4.424 -1.131,-1.132 -2.696,-1.833 -4.423,-1.833 -1.727,0 -3.292,0.701 -4.423,1.833 -1.133,1.132 -1.833,2.696 -1.833,4.424 0,1.726 0.7,3.291 1.833,4.423 1.131,1.132 2.696,1.833 4.423,1.833 m 41.211,69.625 V 4.625 c -1.952,-0.309 -3.699,-1.235 -5.035,-2.571 -1.659,-1.659 -2.685,-3.95 -2.685,-6.481 0,-0.878 0.124,-1.727 0.354,-2.531 l -26.234,-12.268 c -0.328,0.484 -0.702,0.936 -1.114,1.349 -0.354,0.354 -0.737,0.678 -1.143,0.971 l 34.458,68.744 c 0.452,-0.145 0.92,-0.256 1.399,-0.331 M 5.872,4.655 v 46.974 c 0.46,0.073 0.91,0.179 1.344,0.318 l 34.48,-68.784 c -0.415,-0.297 -0.804,-0.627 -1.163,-0.986 -0.419,-0.419 -0.798,-0.878 -1.131,-1.37 L 13.265,-6.971 c 0.232,0.808 0.357,1.662 0.357,2.544 0,2.539 -1.029,4.837 -2.694,6.502 -1.342,1.341 -3.096,2.27 -5.056,2.58 M -32.858,-16.867 1.637,51.947 C 2.072,51.809 2.521,51.702 2.981,51.629 V 4.655 C 1.021,4.345 -0.733,3.416 -2.075,2.075 -3.739,0.41 -4.768,-1.888 -4.768,-4.427 c 0,-0.882 0.124,-1.736 0.356,-2.544 L -30.58,-19.208 c -0.33,0.489 -0.707,0.945 -1.123,1.361 -0.357,0.357 -0.743,0.685 -1.155,0.98 m 3.419,58.934 26.39,13.281 c 0.291,-0.404 0.614,-0.783 0.965,-1.135 0.356,-0.355 0.74,-0.681 1.149,-0.975 l -34.494,-68.814 c -0.439,0.14 -0.892,0.248 -1.356,0.32 v 45.399 c 1.969,0.309 3.731,1.242 5.079,2.59 1.67,1.67 2.703,3.977 2.703,6.524 0,0.98 -0.153,1.924 -0.436,2.81 M -85.3,-0.014 c 1.13,1.129 2.69,1.828 4.413,1.828 1.722,0 3.283,-0.699 4.412,-1.828 1.129,-1.13 1.828,-2.69 1.828,-4.413 0,-1.723 -0.699,-3.284 -1.828,-4.413 -1.129,-1.129 -2.69,-1.828 -4.412,-1.828 -1.723,0 -3.283,0.699 -4.413,1.828 -1.129,1.129 -1.828,2.69 -1.828,4.413 0,1.723 0.699,3.283 1.828,4.413 m 7.257,51.852 34.44,-68.706 c -0.412,-0.294 -0.797,-0.622 -1.154,-0.979 -0.416,-0.416 -0.793,-0.872 -1.124,-1.361 l -26.195,12.25 c 0.23,0.804 0.354,1.653 0.354,2.531 0,2.531 -1.026,4.822 -2.685,6.481 -1.336,1.336 -3.083,2.262 -5.035,2.571 v 46.882 c 0.48,0.075 0.946,0.186 1.399,0.331 m 30.585,-12.581 c 0,-2.547 1.034,-4.854 2.703,-6.524 1.348,-1.348 3.11,-2.281 5.079,-2.59 v -45.399 c -0.464,-0.073 -0.917,-0.18 -1.355,-0.32 L -75.47,53.13 c 0.42,0.299 0.814,0.634 1.178,0.998 0.361,0.361 0.691,0.75 0.989,1.165 l 26.282,-13.226 c -0.283,-0.886 -0.437,-1.83 -0.437,-2.81 m 9.227,6.283 c 1.735,0 3.306,-0.704 4.443,-1.841 1.137,-1.137 1.84,-2.708 1.84,-4.442 0,-1.735 -0.703,-3.305 -1.84,-4.442 -1.137,-1.137 -2.708,-1.84 -4.443,-1.84 -1.734,0 -3.304,0.703 -4.441,1.84 -1.137,1.137 -1.84,2.707 -1.84,4.442 0,1.734 0.703,3.305 1.84,4.442 1.137,1.137 2.707,1.841 4.441,1.841 m 7.494,-0.898 c -0.292,0.406 -0.616,0.787 -0.969,1.139 -1.67,1.67 -3.976,2.703 -6.525,2.703 -2.547,0 -4.853,-1.033 -6.524,-2.703 -0.352,-0.352 -0.676,-0.733 -0.969,-1.14 l -26.281,13.226 c 0.289,0.901 0.446,1.86 0.446,2.857 0,2.575 -1.044,4.907 -2.733,6.595 -1.688,1.689 -4.02,2.733 -6.595,2.733 -2.576,0 -4.908,-1.044 -6.596,-2.733 -1.688,-1.688 -2.733,-4.02 -2.733,-6.595 0,-2.575 1.045,-4.908 2.733,-6.596 0.364,-0.364 0.759,-0.699 1.178,-0.998 l -34.458,-68.744 c -0.877,0.278 -1.811,0.428 -2.781,0.428 -2.537,0 -4.834,-1.029 -6.498,-2.691 -1.662,-1.663 -2.691,-3.961 -2.691,-6.497 0,-2.538 1.029,-4.835 2.691,-6.498 1.664,-1.663 3.961,-2.691 6.498,-2.691 2.537,0 4.834,1.028 6.497,2.691 1.663,1.663 2.691,3.96 2.691,6.498 0,0.881 -0.124,1.733 -0.356,2.541 l 26.235,12.267 c 0.327,-0.481 0.698,-0.931 1.109,-1.342 1.659,-1.658 3.95,-2.684 6.481,-2.684 2.53,0 4.822,1.026 6.48,2.684 0.411,0.411 0.782,0.861 1.11,1.342 l 26.195,-12.249 c -0.234,-0.812 -0.36,-1.672 -0.36,-2.559 0,-2.549 1.034,-4.857 2.705,-6.528 1.67,-1.67 3.978,-2.704 6.526,-2.704 2.55,0 4.857,1.034 6.528,2.704 1.67,1.671 2.704,3.979 2.704,6.528 0,0.887 -0.126,1.747 -0.36,2.559 l 26.168,12.236 c 0.329,-0.484 0.703,-0.937 1.116,-1.35 1.664,-1.664 3.962,-2.693 6.502,-2.693 2.538,0 4.837,1.029 6.501,2.693 0.413,0.413 0.787,0.866 1.116,1.35 l 26.137,-12.222 c -0.236,-0.817 -0.363,-1.68 -0.363,-2.573 0,-2.559 1.038,-4.875 2.715,-6.551 1.676,-1.677 3.992,-2.715 6.55,-2.715 2.558,0 4.875,1.038 6.552,2.715 1.676,1.676 2.714,3.992 2.714,6.551 0,2.557 -1.038,4.874 -2.714,6.551 -1.677,1.676 -3.994,2.714 -6.552,2.714 -0.982,0 -1.927,-0.153 -2.816,-0.436 L 9.789,53.238 c 0.409,0.294 0.793,0.62 1.148,0.975 1.666,1.667 2.697,3.969 2.697,6.511 0,2.542 -1.031,4.844 -2.697,6.51 -1.666,1.666 -3.968,2.697 -6.51,2.697 -2.542,0 -4.845,-1.031 -6.511,-2.697 -1.666,-1.666 -2.697,-3.968 -2.697,-6.51 0,-0.977 0.152,-1.918 0.434,-2.801 z"
             style="fill:#ffffff;fill-opacity:1;fill-rule:evenodd;stroke:none"
             id="path30"
             inkscape:connector-curvature="0" />
        </g>
      </g>
    </g>
  </g>
</svg>
